<svg width="36" height="36" viewBox="0 0 36 36" fill="none" xmlns="http://www.w3.org/2000/svg">
<path d="M32.892 17.4106C32.589 16.6786 31.9395 16.5031 31.5 16.4611V12.0001C31.5 10.3456 30.1545 9.00009 28.5 9.00009H19.5V6.91509C19.9575 6.50409 20.25 5.91309 20.25 5.25009C20.25 4.65335 20.0129 4.08106 19.591 3.6591C19.169 3.23714 18.5967 3.00009 18 3.00009C17.4032 3.00009 16.831 3.23714 16.409 3.6591C15.987 4.08106 15.75 4.65335 15.75 5.25009C15.75 5.91309 16.0425 6.50409 16.5 6.91509V9.00009H7.49998C5.84549 9.00009 4.49999 10.3456 4.49999 12.0001V16.4956L4.37699 16.5046C3.99894 16.5319 3.64525 16.7013 3.38701 16.9787C3.12877 17.2562 2.98514 17.6211 2.98499 18.0001V21.0001C2.98499 21.3979 3.14302 21.7794 3.42433 22.0608C3.70563 22.3421 4.08716 22.5001 4.48499 22.5001H4.49999V30.0001C4.49999 31.6546 5.84549 33.0001 7.49998 33.0001H28.5C30.1545 33.0001 31.5 31.6546 31.5 30.0001V22.5001C31.8978 22.5001 32.2793 22.3421 32.5606 22.0608C32.8419 21.7794 33 21.3979 33 21.0001V18.0931C33.0173 17.8603 32.9803 17.6267 32.892 17.4106ZM7.49998 30.0001V12.0001H28.5L28.5015 17.9941L28.5 18.0001V21.0001L28.5015 21.0076L28.503 30.0001H7.49998Z" fill="#256EFF"/>
<path d="M12.7496 20.9999C13.9923 20.9999 14.9996 19.6568 14.9996 17.9999C14.9996 16.3431 13.9923 14.9999 12.7496 14.9999C11.507 14.9999 10.4996 16.3431 10.4996 17.9999C10.4996 19.6568 11.507 20.9999 12.7496 20.9999Z" fill="#256EFF"/>
<path d="M23.2504 20.9999C24.493 20.9999 25.5004 19.6568 25.5004 17.9999C25.5004 16.3431 24.493 14.9999 23.2504 14.9999C22.0077 14.9999 21.0004 16.3431 21.0004 17.9999C21.0004 19.6568 22.0077 20.9999 23.2504 20.9999Z" fill="#256EFF"/>
<path d="M12.4277 23.5H23.5723C24.2663 23.5 24.7403 24.1954 24.3409 24.7629C21.6548 28.5791 14.3452 28.5791 11.6591 24.7629C11.2597 24.1954 11.7337 23.5 12.4277 23.5Z" fill="#256EFF"/>
</svg>
