<svg version="1.2" xmlns="http://www.w3.org/2000/svg" viewBox="0 0 360 310" width="360" height="310">
	<style>
		.s0 { fill: #090909 } 
	</style>
	<path class="s0" d="m284.57 299.99h-21.31q-0.05 0-0.09-0.01-0.05 0-0.1-0.01-0.04-0.01-0.08-0.03-0.05-0.01-0.09-0.03-8.14-3.61-14.52-6.82c-2.84-1.42-6.16-2.43-8.63-3.8q-1.64-0.91-7.89-1.78-0.14-0.02-0.27-0.01-0.14 0.01-0.27 0.04-0.13 0.04-0.25 0.1-0.12 0.06-0.23 0.14-9.7 7.65-22.84 10.24-6.15 1.22-11.23 1.77-5.96 0.65-27.18 0.09-0.18 0-0.35-0.02-0.18-0.01-0.36-0.04-0.17-0.02-0.34-0.05-0.18-0.04-0.35-0.08c-2.53-0.62-5.17-0.59-7.51-1.14q-9.17-2.2-13.43-4.09-4.12-1.84-10.77-6.12c-3.32-2.14-14.8 3.09-18.7 5.11-4.55 2.36-7.73 3.53-12.25 6.18q-0.15 0.09-0.31 0.16-0.16 0.06-0.33 0.11-0.17 0.04-0.34 0.07-0.17 0.02-0.35 0.02h-21.97q-0.12 0-0.22-0.07-0.1-0.07-0.14-0.19-0.03-0.11 0-0.23 0.03-0.12 0.13-0.19c8.01-6.34 16.73-12.48 26.76-15.28q2.89-0.81 6.25-2.32 0.16-0.07 0.26-0.21 0.1-0.14 0.11-0.31 0.02-0.17-0.06-0.32-0.07-0.16-0.21-0.25-2.67-1.8-3-5.97-0.16-2.03 0.9-3.37 3-3.77 7.97-3.33 9.04 0.78 10.64 0.95 0.05 0.01 0.1-0.01 0.05-0.01 0.09-0.04 0.04-0.04 0.07-0.08 0.02-0.05 0.03-0.1l0.84-8.75q0.01-0.06-0.01-0.13-0.02-0.06-0.06-0.11-0.04-0.05-0.1-0.08-0.06-0.03-0.12-0.04-14-1.74-28.25-5.45-18.69-4.87-32.7-11.63c-28.37-13.7-47.06-36.87-56.12-66.82q-3.51-11.6-5.39-26.28-1.07-8.32-1.08-20.29-0.01-16.31 0.34-20.36 0.21-2.35 0.44-4.72 1.42-14.88 5.34-26.73c7.93-24.01 24.14-41.99 47.39-52.36q9.67-4.32 22.65-7.34 18.54-4.32 36.22-6.18c4.17-0.44 8.49-0.22 11.86-1.1q0.24-0.06 0.49-0.11 0.25-0.05 0.5-0.08 0.25-0.03 0.5-0.04 0.25-0.01 0.5 0c6.78 0.17 13.51-1.03 20.23-1.07q38.27-0.26 44.39 0.2 12.85 0.99 14.53 0.85 3.01-0.24 9.34 0.55 4.29 0.54 9.33 0.63 0.13 0 0.25 0.01 0.13 0.01 0.26 0.03 0.12 0.01 0.25 0.04 0.13 0.02 0.25 0.05 2.61 0.65 5.26 0.7c2.9 0.05 4.84 1 7.47 0.94q0.56-0.01 3 0.39c13.28 2.19 25.77 4.61 37.27 8.65q6.14 2.16 13.97 6.04 23.31 11.54 36.15 33.82 8.61 14.94 12.25 32.54 0.96 4.66 1.72 8.95 0.92 5.17 0.96 7.34c0.07 3.33 0.85 5.97 0.9 9.81q0.26 17.85-0.13 24.07-0.48 7.58-2.25 18.92-2.95 18.77-11.71 35.78c-11.76 22.81-31.61 38.98-55.28 48.46q-21.64 8.67-51.19 12.49-0.03 0-0.05 0.02-0.02 0.01-0.04 0.03-0.01 0.02-0.02 0.05 0 0.02 0 0.05l1.2 8.31q0.01 0.05 0.03 0.09 0.03 0.05 0.07 0.08 0.04 0.03 0.09 0.04 0.04 0.01 0.09 0 8.03-1.23 14.45-0.81c1.72 0.12 3.6 1.1 4.6 2.78q2.5 4.21-0.15 8.15c-0.58 0.85-1.82 1.57-2.44 2.41q-0.05 0.07-0.06 0.16-0.01 0.09 0.03 0.17 0.05 0.08 0.13 0.13 0.08 0.04 0.17 0.04 0.59-0.02 1.86 0.59 0.1 0.05 0.2 0.09 0.1 0.04 0.21 0.08 0.1 0.03 0.21 0.06 0.1 0.04 0.21 0.06 9.03 2.25 11.4 3.38 11.22 5.35 20.27 13.07 0.09 0.08 0.12 0.2 0.03 0.12-0.01 0.24-0.04 0.12-0.14 0.19-0.11 0.07-0.23 0.07zm-4.09-66.69q34.3-14.54 48-48.6 5.12-12.73 7.45-26.63 0.13-0.77 0.18-2.13c0.08-1.83 0.79-3.46 0.82-5.29q0.05-3.33 0.87-13.11 0.49-5.74 0.01-12.53-0.4-5.85-1.01-12.48-1.93-21.28-11.3-40.03c-9.67-19.37-27.32-31.73-47.66-38.06q-21.11-6.58-49.09-9.48-4.63-0.48-5.19-0.56c-4.03-0.59-7.9-0.24-11.33-0.86q-3.56-0.65-6.12-0.53-2.1 0.1-11.87-0.6c-14-0.99-30.24-0.13-47.15 0.7q-2.53 0.12-4.17 0.42c-4.25 0.78-9.02 0.18-12.69 0.95q-2.12 0.45-5.03 0.51-0.34 0.01-5.03 0.6-21 2.62-40.04 8.27c-19.65 5.84-37.12 18.45-45.91 36.88q-6.6 13.84-8.72 30.73-3.49 27.91 1.04 54.11c3.04 17.59 9.06 33.62 19.69 47.93 11.54 15.56 29.14 26.09 47.46 32.56q8.38 2.96 19.01 5.66c7.19 1.83 13.35 2.67 20.44 3.97q2.17 0.4 3.24 0.36c2.76-0.11 5.15 0.98 8.08 0.99 3 0.02 5.43 0.97 8.23 0.96 4.36-0.02 8.47 0.8 12.76 0.94q19.33 0.62 39.67-0.06c3.49-0.11 6.01-0.85 9.72-0.84q3.77 0.02 6.63-0.6c2.48-0.55 4.66-0.22 6.78-0.73 3.2-0.77 5.79-0.32 8.52-1.25q0.73-0.24 3.49-0.65 19.94-2.93 40.22-11.52zm-63.04 28.59q-8.35 0.21-9.88 0.3-21.67 1.32-33.38 0.61-9.65-0.59-20.12-0.92-1.21-0.04-5.91-0.77-0.17-0.03-0.33 0.02-0.16 0.05-0.29 0.15-0.13 0.11-0.2 0.27-0.07 0.15-0.08 0.32l-0.36 13.47q0 0.12 0 0.24 0 0.12 0.01 0.24 0.01 0.12 0.03 0.23 0.02 0.12 0.05 0.24c1.31 5.98 6.04 9.07 11.11 10.68q7.19 2.29 16.42 2.98 4.2 0.31 15.68 0.05 3.79-0.08 7.19-0.71 6.67-1.24 7.12-1.37 3.78-1.06 6.85-2.35c9.7-4.06 7.92-13.77 6.74-23.12q-0.02-0.12-0.07-0.22-0.06-0.11-0.15-0.19-0.09-0.07-0.2-0.11-0.11-0.04-0.23-0.04z"/>
	<path class="s0" d="m563.95 176.08v5.83q0 0.16-0.06 0.31-0.06 0.14-0.17 0.26-0.11 0.11-0.26 0.17-0.14 0.06-0.3 0.06h-14.6q-0.1 0-0.2-0.04-0.09-0.04-0.17-0.12-0.07-0.07-0.11-0.17-0.04-0.09-0.04-0.2v-91.59q0-0.12 0.05-0.24 0.04-0.11 0.13-0.2 0.08-0.09 0.2-0.13 0.11-0.05 0.23-0.05h15.71q0.12 0 0.23 0.05 0.12 0.04 0.2 0.13 0.09 0.08 0.13 0.2 0.05 0.11 0.05 0.23v30.66q0 0.16 0.08 0.29 0.09 0.13 0.23 0.19 0.15 0.06 0.3 0.04 0.16-0.03 0.27-0.14 5.61-5.32 13.4-6.44c13.05-1.88 26.61 0.65 30.58 15.23q0.03 0.1 0.05 0.21 0.02 0.11 0.04 0.22 0.02 0.1 0.04 0.21 0.01 0.11 0.02 0.22 0.47 5.57 0.24 30.99-0.06 6.14-1.68 9.55-3.92 8.27-13.26 10.69-11.06 2.87-22.03-0.62-4.75-1.52-8.63-6.04-0.08-0.09-0.19-0.12-0.12-0.03-0.23 0.01-0.11 0.04-0.18 0.13-0.07 0.1-0.07 0.22zm29.66-37.8c0-1.37-0.28-2.73-0.81-3.99-0.54-1.27-1.31-2.42-2.29-3.39-0.98-0.96-2.13-1.73-3.4-2.24-1.28-0.52-2.64-0.79-4.01-0.78l-7.8 0.04c-1.38 0.01-2.73 0.29-4 0.82-1.27 0.53-2.42 1.31-3.38 2.28-0.97 0.98-1.73 2.14-2.25 3.41-0.52 1.27-0.78 2.63-0.78 4.01l0.12 21.8c0 1.37 0.28 2.73 0.81 3.99 0.54 1.27 1.31 2.42 2.29 3.39 0.98 0.96 2.13 1.73 3.4 2.24 1.28 0.52 2.64 0.79 4.01 0.78l7.8-0.04c1.38-0.01 2.73-0.29 4-0.82 1.27-0.53 2.42-1.31 3.38-2.28 0.97-0.98 1.73-2.14 2.25-3.41 0.52-1.27 0.78-2.63 0.78-4.01z"/>
	<path class="s0" d="m760.98 121.77q0.11-2.05 0.04-11-0.02-3.7 1.54-7.84c1.99-5.29 6.09-8.72 11.69-9.99q4.51-1.03 9.02-0.99 20.91 0.18 26.93 0.04 0.1 0 0.2 0.04 0.09 0.03 0.17 0.11 0.07 0.07 0.11 0.16 0.04 0.1 0.04 0.2v13.17q0 0.11-0.04 0.21-0.05 0.11-0.13 0.18-0.08 0.08-0.18 0.12-0.1 0.04-0.21 0.03-15.33-0.8-26.23-0.16-4.67 0.27-5.59 5.02-0.62 3.16-0.37 10.8 0 0.1 0.04 0.19 0.04 0.09 0.11 0.16 0.07 0.07 0.16 0.1 0.09 0.04 0.19 0.04h24.67q0.13 0 0.24 0.05 0.12 0.05 0.21 0.14 0.09 0.09 0.14 0.21 0.05 0.11 0.05 0.24v13.38q0 0.11-0.04 0.21-0.05 0.11-0.12 0.19-0.08 0.07-0.19 0.12-0.1 0.04-0.21 0.04h-24.78q-0.12 0-0.22 0.04-0.11 0.05-0.19 0.13-0.08 0.08-0.13 0.19-0.04 0.1-0.04 0.22v44.87q0 0.07-0.03 0.13-0.02 0.06-0.07 0.11-0.05 0.05-0.11 0.07-0.06 0.03-0.13 0.03h-15.77q-0.14 0-0.27-0.05-0.13-0.06-0.23-0.16-0.1-0.09-0.16-0.22-0.05-0.13-0.05-0.27v-44.52q0-0.11-0.04-0.22-0.05-0.1-0.13-0.18-0.08-0.08-0.18-0.13-0.11-0.04-0.22-0.04h-15.14q-0.11 0-0.21-0.04-0.1-0.04-0.18-0.12-0.08-0.08-0.12-0.18-0.04-0.1-0.04-0.21v-13.37q0-0.13 0.05-0.24 0.04-0.12 0.13-0.21 0.09-0.08 0.2-0.13 0.12-0.05 0.24-0.05h14.92q0.13 0 0.24-0.05 0.12-0.04 0.21-0.13 0.09-0.09 0.15-0.2 0.05-0.11 0.06-0.24z"/>
	<path class="s0" d="m73.05 131.48c0.62-5.7 2.4-11.21 5.22-16.23 2.82-5.02 6.65-9.44 11.25-13.01 4.6-3.58 9.89-6.24 15.57-7.83 5.67-1.59 11.62-2.07 17.51-1.43 5.89 0.63 11.6 2.39 16.8 5.16 5.2 2.77 9.8 6.5 13.53 10.98 3.72 4.48 6.5 9.62 8.19 15.13 1.68 5.51 2.22 11.27 1.61 16.97-0.62 5.7-2.4 11.21-5.22 16.23-2.82 5.02-6.65 9.44-11.25 13.01-4.6 3.58-9.89 6.24-15.57 7.83-5.67 1.59-11.62 2.07-17.51 1.43-5.89-0.63-11.6-2.39-16.8-5.16-5.2-2.77-9.8-6.5-13.53-10.98-3.72-4.48-6.5-9.62-8.19-15.13-1.68-5.51-2.22-11.27-1.61-16.97zm38.1-22.71q-0.76-1.25-2.02-2.07-1.27-0.81-2.85-1.06-1.59-0.25-3.26 0.1c-1.1 0.23-2.17 0.66-3.16 1.25-0.99 0.59-1.87 1.34-2.59 2.2q-1.09 1.31-1.61 2.83-0.52 1.52-0.4 3.02 0.12 1.5 0.87 2.75 0.76 1.25 2.02 2.07 1.27 0.81 2.85 1.06 1.59 0.25 3.26-0.1c1.1-0.23 2.17-0.66 3.16-1.25 0.99-0.59 1.87-1.34 2.59-2.2q1.09-1.31 1.61-2.83 0.52-1.52 0.4-3.02-0.12-1.5-0.87-2.75z"/>
	<path class="s0" d="m206.32 128.06c1.06-5.64 3.24-11 6.42-15.79 3.19-4.79 7.31-8.91 12.15-12.13 4.83-3.21 10.27-5.47 16.01-6.62 5.74-1.16 11.67-1.2 17.45-0.12 5.77 1.09 11.29 3.27 16.22 6.42 4.94 3.15 9.19 7.22 12.54 11.97 3.34 4.74 5.69 10.08 6.93 15.7 1.24 5.61 1.33 11.4 0.28 17.03-1.06 5.64-3.24 11-6.42 15.79-3.19 4.79-7.31 8.91-12.15 12.13-4.83 3.21-10.27 5.47-16.01 6.62-5.74 1.16-11.67 1.2-17.45 0.12-5.77-1.09-11.29-3.27-16.22-6.42-4.94-3.15-9.19-7.22-12.54-11.97-3.34-4.74-5.69-10.08-6.93-15.7-1.24-5.61-1.33-11.4-0.28-17.03zm36.5-20.2q-0.9-1.11-2.24-1.73-1.33-0.63-2.9-0.67-1.56-0.03-3.12 0.52c-1.03 0.37-2 0.92-2.87 1.62-0.86 0.7-1.6 1.54-2.17 2.47q-0.87 1.4-1.16 2.94-0.28 1.54 0.05 2.98 0.33 1.43 1.23 2.55 0.9 1.11 2.24 1.73 1.33 0.63 2.9 0.67 1.56 0.03 3.12-0.52c1.03-0.37 2-0.92 2.87-1.62 0.86-0.7 1.6-1.54 2.17-2.47q0.87-1.4 1.16-2.94 0.28-1.54-0.05-2.98-0.33-1.43-1.23-2.55z"/>
	<path class="s0" d="m500.13 114.84c10.5 0.01 24.61 1.04 29.95 11.75 3.35 6.74 2.43 14.43 2.43 22.72-0.01 8.29 0.89 15.98-2.49 22.72-5.35 10.69-19.46 11.69-29.97 11.68-10.5-0.01-24.61-1.04-29.94-11.75-3.36-6.74-2.44-14.43-2.43-22.72 0.01-8.3-0.89-15.99 2.48-22.72 5.35-10.7 19.47-11.7 29.97-11.68zm15.67 23.62c-0.01-1.4-0.3-2.8-0.85-4.09-0.55-1.3-1.35-2.47-2.35-3.46-1.01-0.99-2.19-1.76-3.5-2.29-1.3-0.53-2.7-0.79-4.11-0.78l-9.86 0.08c-1.41 0.02-2.8 0.31-4.09 0.86-1.3 0.55-2.47 1.35-3.46 2.35-0.99 1-1.77 2.19-2.29 3.5-0.53 1.3-0.8 2.7-0.78 4.11l0.19 21.74c0.01 1.4 0.3 2.8 0.85 4.09 0.55 1.3 1.35 2.47 2.35 3.46 1.01 0.99 2.19 1.76 3.5 2.29 1.3 0.53 2.7 0.79 4.11 0.78l9.86-0.08c1.41-0.02 2.8-0.31 4.09-0.86 1.3-0.55 2.47-1.35 3.46-2.35 0.99-1 1.77-2.19 2.29-3.5 0.53-1.3 0.8-2.7 0.78-4.11z"/>
	<path class="s0" d="m657.04 114.84c12.35 0.02 26.43 1.43 30.96 15.23 1.68 5.14 0.98 13.09 0.97 19.24-0.01 6.15 0.68 14.1-1.02 19.23-4.57 13.79-18.66 15.17-31.01 15.15-12.36-0.02-26.44-1.43-30.97-15.23-1.68-5.14-0.97-13.09-0.96-19.24 0.01-6.15-0.68-14.1 1.02-19.23 4.56-13.8 18.65-15.17 31.01-15.15zm15.3 23.52c-0.01-1.39-0.29-2.77-0.83-4.05-0.55-1.29-1.34-2.45-2.33-3.43-0.99-0.98-2.17-1.76-3.46-2.28-1.29-0.53-2.68-0.79-4.07-0.78l-9.32 0.06c-1.4 0.01-2.77 0.3-4.06 0.84-1.28 0.54-2.45 1.33-3.43 2.33-0.98 0.99-1.75 2.17-2.28 3.46-0.52 1.29-0.79 2.67-0.78 4.07l0.16 21.96c0.01 1.39 0.29 2.77 0.83 4.05 0.55 1.29 1.34 2.45 2.33 3.43 0.99 0.98 2.17 1.76 3.46 2.28 1.29 0.53 2.68 0.79 4.07 0.78l9.32-0.06c1.4-0.01 2.77-0.3 4.06-0.84 1.28-0.54 2.45-1.33 3.43-2.33 0.98-0.99 1.75-2.17 2.28-3.46 0.52-1.29 0.79-2.67 0.78-4.07z"/>
	<path class="s0" d="m909.94 123.86q0 0.1 0.05 0.18 0.05 0.09 0.14 0.13 0.09 0.04 0.18 0.02 0.1-0.03 0.16-0.1 3.22-3.8 7.43-6.03 4.25-2.25 9.2-2.88 5.89-0.74 12.47 0.03 7.16 0.85 11.28 4.24 4.49 3.71 6.01 10.39 0.18 0.83 1.09 5.32 0 0.03 0.01 0.05 0 0.03 0 0.06 0.01 0.03 0.01 0.06 0 0.02 0 0.05v46.97q0 0.07-0.03 0.14-0.02 0.06-0.08 0.11-0.05 0.06-0.11 0.08-0.07 0.03-0.14 0.03h-15.93q-0.13 0-0.25-0.05-0.12-0.05-0.21-0.14-0.09-0.09-0.14-0.21-0.05-0.12-0.05-0.25 0.03-36.06-0.01-41.55-0.05-7.55-5.87-10.38c-3.75-1.83-9.65-1.3-14.15-1.06q-0.77 0.05-4.12 1.58c-4.02 1.84-6.17 5.43-6.21 9.72q-0.18 19.31 0 41.58 0 0.16-0.06 0.3-0.06 0.14-0.17 0.25-0.11 0.11-0.26 0.17-0.14 0.06-0.3 0.06l-15.43 0.01q-0.09 0-0.17-0.03-0.08-0.04-0.14-0.1-0.06-0.06-0.1-0.14-0.03-0.08-0.03-0.17v-65.64q0-0.13 0.05-0.25 0.05-0.12 0.14-0.22 0.1-0.09 0.22-0.14 0.12-0.05 0.25-0.05h15.43q0.11 0 0.22 0.05 0.1 0.04 0.18 0.13 0.08 0.08 0.11 0.19 0.04 0.11 0.03 0.23z"/>
	<path class="s0" d="m416.22 124.13q0 0.09 0.06 0.16 0.05 0.07 0.14 0.1 0.09 0.02 0.17-0.01 0.09-0.03 0.14-0.1 3.2-5.04 8.52-7.17 3.51-1.42 9.3-1.29 8.38 0.18 19.5 0.16 0.11 0 0.21 0.04 0.11 0.05 0.19 0.12 0.07 0.08 0.12 0.19 0.04 0.1 0.04 0.21v12.97q0 0.13-0.05 0.25-0.05 0.12-0.14 0.21-0.09 0.09-0.21 0.14-0.12 0.05-0.25 0.05l-23.77-0.26q-0.19 0-0.37 0.01-0.19 0.02-0.38 0.04-0.18 0.03-0.36 0.06-0.19 0.04-0.37 0.09-4.23 1.17-4.79 1.36-7.28 2.46-7.41 10.55-0.22 15.05-0.12 40.13 0 0.11-0.04 0.22-0.05 0.1-0.13 0.18-0.08 0.08-0.18 0.13-0.11 0.04-0.22 0.04h-15.62q-0.11 0-0.22-0.04-0.1-0.05-0.18-0.13-0.08-0.08-0.13-0.18-0.04-0.11-0.04-0.22v-65.72q0-0.08 0.03-0.16 0.03-0.07 0.09-0.13 0.05-0.06 0.13-0.09 0.07-0.03 0.15-0.03h15.81q0.08 0 0.15 0.03 0.07 0.03 0.12 0.08 0.05 0.05 0.08 0.12 0.03 0.07 0.03 0.15z"/>
	<path class="s0" d="m862.74 174.08q0-0.1-0.06-0.18-0.05-0.09-0.15-0.12-0.1-0.03-0.19 0-0.1 0.03-0.16 0.11c-7.62 10.41-20.97 11.6-32.47 8.21q-8.36-2.46-11.19-10.33-0.44-1.23-1.47-5.79-0.01-0.03-0.01-0.06-0.01-0.02-0.01-0.05-0.01-0.03-0.01-0.06 0-0.03 0-0.06v-49.19q0-0.11 0.04-0.22 0.05-0.1 0.13-0.18 0.08-0.08 0.19-0.13 0.1-0.04 0.22-0.04l15.8 0.01q0.11 0 0.21 0.04 0.1 0.05 0.18 0.13 0.07 0.08 0.11 0.19 0.03 0.1 0.02 0.21 0 0.01 0.01 40.67 0 4.9 1.03 7.67 0.04 0.12 0.09 0.23 0.05 0.12 0.11 0.23 0.06 0.11 0.13 0.22 0.07 0.11 0.14 0.21 2.87 4.02 6.81 4.26c6.25 0.38 12.15 0.38 16.83-2.69 4.47-2.95 3.53-11.26 3.54-15.96q0.05-18.81-0.13-34.84 0-0.11 0.04-0.22 0.04-0.1 0.12-0.18 0.08-0.08 0.18-0.13 0.11-0.04 0.22-0.04h15.35q0.12 0 0.23 0.05 0.12 0.04 0.2 0.13 0.09 0.08 0.13 0.2 0.05 0.11 0.05 0.23v65.77q0 0.07-0.03 0.13-0.02 0.07-0.07 0.12-0.05 0.05-0.12 0.07-0.06 0.03-0.13 0.03h-15.23q-0.14 0-0.26-0.05-0.13-0.06-0.22-0.15-0.1-0.1-0.15-0.23-0.05-0.12-0.05-0.26z"/>
	<path fill-rule="evenodd" class="s0" d="m710.57 163.54l18.88-0.04c0.3 0 0.54 0.24 0.54 0.54l0.04 18.22c0 0.3-0.24 0.54-0.54 0.54l-18.88 0.04c-0.3 0-0.54-0.24-0.54-0.54l-0.04-18.22c0-0.3 0.24-0.54 0.54-0.54z"/>
</svg>