<?xml version="1.0" encoding="UTF-8" standalone="no"?>
<!DOCTYPE svg PUBLIC "-//W3C//DTD SVG 1.1//EN" "http://www.w3.org/Graphics/SVG/1.1/DTD/svg11.dtd">
<svg xmlns="http://www.w3.org/2000/svg" version="1.1" viewBox="0.00 0.00 968.00 310.00">
<path fill="#090909" d="
  M 284.57 299.99
  L 263.26 299.99
  A 0.86 0.83 -31.7 0 1 262.90 299.91
  Q 254.76 296.30 248.38 293.09
  C 245.54 291.67 242.22 290.66 239.75 289.29
  Q 238.11 288.38 231.86 287.51
  A 1.36 1.34 29.8 0 0 230.84 287.78
  Q 221.14 295.43 208.00 298.02
  Q 201.85 299.24 196.77 299.79
  Q 190.81 300.44 169.59 299.88
  A 6.64 6.63 52.7 0 1 168.19 299.69
  C 165.66 299.07 163.02 299.10 160.68 298.55
  Q 151.51 296.35 147.25 294.46
  Q 143.13 292.62 136.48 288.34
  C 133.16 286.20 121.68 291.43 117.78 293.45
  C 113.23 295.81 110.05 296.98 105.53 299.63
  A 2.66 2.57 28.9 0 1 104.20 299.99
  L 82.23 299.99
  A 0.38 0.38 0.0 0 1 82.00 299.31
  C 90.01 292.97 98.73 286.83 108.76 284.03
  Q 111.65 283.22 115.01 281.71
  A 0.63 0.62 -40.2 0 0 115.11 280.62
  Q 112.44 278.82 112.11 274.65
  Q 111.95 272.62 113.01 271.28
  Q 116.01 267.51 120.98 267.95
  Q 130.02 268.73 131.62 268.90
  A 0.26 0.26 0.0 0 0 131.91 268.67
  L 132.75 259.92
  A 0.33 0.33 0.0 0 0 132.46 259.56
  Q 118.46 257.82 104.21 254.11
  Q 85.52 249.24 71.51 242.48
  C 43.14 228.78 24.45 205.61 15.39 175.66
  Q 11.88 164.06 10.00 149.38
  Q 8.93 141.06 8.92 129.09
  Q 8.91 112.78 9.26 108.73
  Q 9.47 106.38 9.70 104.01
  Q 11.12 89.13 15.04 77.28
  C 22.97 53.27 39.18 35.29 62.43 24.92
  Q 72.10 20.60 85.08 17.58
  Q 103.62 13.26 121.30 11.40
  C 125.47 10.96 129.79 11.18 133.16 10.30
  A 7.00 6.91 -51.2 0 1 135.15 10.07
  C 141.93 10.24 148.66 9.04 155.38 9.00
  Q 193.65 8.74 199.77 9.20
  Q 212.62 10.19 214.30 10.05
  Q 217.31 9.81 223.64 10.60
  Q 227.93 11.14 232.97 11.23
  A 4.81 4.63 51.3 0 1 233.98 11.36
  Q 236.59 12.01 239.24 12.06
  C 242.14 12.11 244.08 13.06 246.71 13.00
  Q 247.27 12.99 249.71 13.39
  C 262.99 15.58 275.48 18.00 286.98 22.04
  Q 293.12 24.20 300.95 28.08
  Q 324.26 39.62 337.10 61.90
  Q 345.71 76.84 349.35 94.44
  Q 350.31 99.10 351.07 103.39
  Q 351.99 108.56 352.03 110.73
  C 352.10 114.06 352.88 116.70 352.93 120.54
  Q 353.19 138.39 352.80 144.61
  Q 352.32 152.19 350.55 163.53
  Q 347.60 182.30 338.84 199.31
  C 327.08 222.12 307.23 238.29 283.56 247.77
  Q 261.92 256.44 232.37 260.26
  A 0.13 0.13 0.0 0 0 232.26 260.41
  L 233.46 268.72
  A 0.25 0.24 80.7 0 0 233.74 268.93
  Q 241.77 267.70 248.19 268.12
  C 249.91 268.24 251.79 269.22 252.79 270.90
  Q 255.29 275.11 252.64 279.05
  C 252.06 279.90 250.82 280.62 250.20 281.46
  A 0.32 0.31 17.0 0 0 250.47 281.96
  Q 251.06 281.94 252.33 282.55
  A 4.13 4.07 63.8 0 0 253.16 282.84
  Q 262.19 285.09 264.56 286.22
  Q 275.78 291.57 284.83 299.29
  A 0.40 0.40 0.0 0 1 284.57 299.99
  Z
  M 280.48 233.30
  Q 314.78 218.76 328.48 184.70
  Q 333.60 171.97 335.93 158.07
  Q 336.06 157.30 336.11 155.94
  C 336.19 154.11 336.90 152.48 336.93 150.65
  Q 336.98 147.32 337.80 137.54
  Q 338.29 131.80 337.81 125.01
  Q 337.41 119.16 336.80 112.53
  Q 334.87 91.25 325.50 72.50
  C 315.83 53.13 298.18 40.77 277.84 34.44
  Q 256.73 27.86 228.75 24.96
  Q 224.12 24.48 223.56 24.40
  C 219.53 23.81 215.66 24.16 212.23 23.54
  Q 208.67 22.89 206.11 23.01
  Q 204.01 23.11 194.24 22.41
  C 180.24 21.42 164.00 22.28 147.09 23.11
  Q 144.56 23.23 142.92 23.53
  C 138.67 24.31 133.90 23.71 130.23 24.48
  Q 128.11 24.93 125.20 24.99
  Q 124.86 25.00 120.17 25.59
  Q 99.17 28.21 80.13 33.86
  C 60.48 39.70 43.01 52.31 34.22 70.74
  Q 27.62 84.58 25.50 101.47
  Q 22.01 129.38 26.54 155.58
  C 29.58 173.17 35.60 189.20 46.23 203.51
  C 57.77 219.07 75.37 229.60 93.69 236.07
  Q 102.07 239.03 112.70 241.73
  C 119.89 243.56 126.05 244.40 133.14 245.70
  Q 135.31 246.10 136.38 246.06
  C 139.14 245.95 141.53 247.04 144.46 247.05
  C 147.46 247.07 149.89 248.02 152.69 248.01
  C 157.05 247.99 161.16 248.81 165.45 248.95
  Q 184.78 249.57 205.12 248.89
  C 208.61 248.78 211.13 248.04 214.84 248.05
  Q 218.61 248.07 221.47 247.45
  C 223.95 246.90 226.13 247.23 228.25 246.72
  C 231.45 245.95 234.04 246.40 236.77 245.47
  Q 237.50 245.23 240.26 244.82
  Q 260.20 241.89 280.48 233.30
  Z
  M 217.44 261.89
  Q 209.09 262.10 207.56 262.19
  Q 185.89 263.51 174.18 262.80
  Q 164.53 262.21 154.06 261.88
  Q 152.85 261.84 148.15 261.11
  A 0.79 0.78 -84.9 0 0 147.25 261.87
  L 146.89 275.34
  A 3.56 3.49 40.1 0 0 146.98 276.29
  C 148.29 282.27 153.02 285.36 158.09 286.97
  Q 165.28 289.26 174.51 289.95
  Q 178.71 290.26 190.19 290.00
  Q 193.98 289.92 197.38 289.29
  Q 204.05 288.05 204.50 287.92
  Q 208.28 286.86 211.35 285.57
  C 221.05 281.51 219.27 271.80 218.09 262.45
  A 0.64 0.64 0.0 0 0 217.44 261.89
  Z"
/>
<path fill="#090909" d="
  M 563.95 176.08
  L 563.95 181.91
  A 0.80 0.79 -90.0 0 1 563.16 182.71
  L 548.56 182.71
  A 0.53 0.52 -90.0 0 1 548.04 182.18
  L 548.04 90.59
  A 0.62 0.61 90.0 0 1 548.65 89.97
  L 564.36 89.97
  A 0.61 0.61 0.0 0 1 564.97 90.58
  L 564.97 121.24
  A 0.52 0.52 0.0 0 0 565.85 121.62
  Q 571.46 116.30 579.25 115.18
  C 592.30 113.30 605.86 115.83 609.83 130.41
  A 5.52 4.97 -57.9 0 1 609.98 131.27
  Q 610.45 136.84 610.22 162.26
  Q 610.16 168.40 608.54 171.81
  Q 604.62 180.08 595.28 182.50
  Q 584.22 185.37 573.25 181.88
  Q 568.50 180.36 564.62 175.84
  A 0.38 0.38 0.0 0 0 563.95 176.08
  Z
  M 593.6127 138.2850
  A 10.46 10.46 0.0 0 0 583.0981 127.8799
  L 575.2982 127.9207
  A 10.46 10.46 0.0 0 0 564.8931 138.4353
  L 565.0073 160.2350
  A 10.46 10.46 0.0 0 0 575.5219 170.6401
  L 583.3218 170.5993
  A 10.46 10.46 0.0 0 0 593.7269 160.0847
  L 593.6127 138.2850
  Z"
/>
<path fill="#090909" d="
  M 760.98 121.77
  Q 761.09 119.72 761.02 110.77
  Q 761.00 107.07 762.56 102.93
  C 764.55 97.64 768.65 94.21 774.25 92.94
  Q 778.76 91.91 783.27 91.95
  Q 804.18 92.13 810.20 91.99
  A 0.51 0.51 0.0 0 1 810.72 92.50
  L 810.72 105.67
  A 0.54 0.53 -88.5 0 1 810.16 106.21
  Q 794.83 105.41 783.93 106.05
  Q 779.26 106.32 778.34 111.07
  Q 777.72 114.23 777.97 121.87
  A 0.50 0.50 0.0 0 0 778.47 122.36
  L 803.14 122.36
  A 0.64 0.64 0.0 0 1 803.78 123.00
  L 803.78 136.38
  A 0.56 0.56 0.0 0 1 803.22 136.94
  L 778.44 136.94
  A 0.58 0.58 0.0 0 0 777.86 137.52
  L 777.86 182.39
  A 0.34 0.34 0.0 0 1 777.52 182.73
  L 761.75 182.73
  A 0.71 0.70 0.0 0 1 761.04 182.03
  L 761.04 137.51
  A 0.57 0.57 0.0 0 0 760.47 136.94
  L 745.33 136.94
  A 0.55 0.55 0.0 0 1 744.78 136.39
  L 744.78 123.02
  A 0.63 0.62 -90.0 0 1 745.40 122.39
  L 760.32 122.39
  A 0.66 0.66 0.0 0 0 760.98 121.77
  Z"
/>
<path fill="#090909" d="
  M 73.0538 131.4792
  A 45.10 43.63 -173.8 0 1 122.6020 92.9752
  A 45.10 43.63 -173.8 0 1 162.7262 141.2208
  A 45.10 43.63 -173.8 0 1 113.1780 179.7248
  A 45.10 43.63 -173.8 0 1 73.0538 131.4792
  Z
  M 111.1488 108.7683
  A 8.76 7.34 -31.0 0 0 99.8596 106.9884
  A 8.76 7.34 -31.0 0 0 96.1312 117.7917
  A 8.76 7.34 -31.0 0 0 107.4204 119.5716
  A 8.76 7.34 -31.0 0 0 111.1488 108.7683
  Z"
/>
<path fill="#090909" d="
  M 206.3238 128.0563
  A 44.76 43.63 -169.4 0 1 258.3458 93.4045
  A 44.76 43.63 -169.4 0 1 294.3162 144.5237
  A 44.76 43.63 -169.4 0 1 242.2942 179.1755
  A 44.76 43.63 -169.4 0 1 206.3238 128.0563
  Z
  M 242.8202 107.8634
  A 8.48 7.21 -39.0 0 0 231.6926 107.5968
  A 8.48 7.21 -39.0 0 0 229.6398 118.5366
  A 8.48 7.21 -39.0 0 0 240.7674 118.8032
  A 8.48 7.21 -39.0 0 0 242.8202 107.8634
  Z"
/>
<path fill="#090909" d="
  M 500.13 114.84
  C 510.63 114.85 524.74 115.88 530.08 126.59
  C 533.43 133.33 532.51 141.02 532.51 149.31
  C 532.50 157.60 533.40 165.29 530.02 172.03
  C 524.67 182.72 510.56 183.72 500.05 183.71
  C 489.55 183.70 475.44 182.67 470.11 171.96
  C 466.75 165.22 467.67 157.53 467.68 149.24
  C 467.69 140.94 466.79 133.25 470.16 126.52
  C 475.51 115.82 489.63 114.82 500.13 114.84
  Z
  M 515.8045 138.4638
  A 10.72 10.72 0.0 0 0 504.9914 127.8378
  L 495.1318 127.9238
  A 10.72 10.72 0.0 0 0 484.5057 138.7370
  L 484.6955 160.4762
  A 10.72 10.72 0.0 0 0 495.5086 171.1022
  L 505.3682 171.0162
  A 10.72 10.72 0.0 0 0 515.9943 160.2030
  L 515.8045 138.4638
  Z"
/>
<path fill="#090909" d="
  M 657.04 114.84
  C 669.39 114.86 683.47 116.27 688.00 130.07
  C 689.68 135.21 688.98 143.16 688.97 149.31
  C 688.96 155.46 689.65 163.41 687.95 168.54
  C 683.38 182.33 669.29 183.71 656.94 183.69
  C 644.58 183.67 630.50 182.26 625.97 168.46
  C 624.29 163.32 625.00 155.37 625.01 149.22
  C 625.02 143.07 624.33 135.12 626.03 129.99
  C 630.59 116.19 644.68 114.82 657.04 114.84
  Z
  M 672.3430 138.3636
  A 10.62 10.62 0.0 0 0 661.6491 127.8180
  L 652.3293 127.8831
  A 10.62 10.62 0.0 0 0 641.7837 138.5769
  L 641.9370 160.5364
  A 10.62 10.62 0.0 0 0 652.6309 171.0820
  L 661.9507 171.0169
  A 10.62 10.62 0.0 0 0 672.4963 160.3231
  L 672.3430 138.3636
  Z"
/>
<path fill="#090909" d="
  M 909.94 123.86
  A 0.31 0.30 68.0 0 0 910.47 124.09
  Q 913.69 120.29 917.90 118.06
  Q 922.15 115.81 927.10 115.18
  Q 932.99 114.44 939.57 115.21
  Q 946.73 116.06 950.85 119.45
  Q 955.34 123.16 956.86 129.84
  Q 957.04 130.67 957.95 135.16
  A 1.28 1.17 42.4 0 1 957.97 135.38
  L 957.97 182.35
  A 0.36 0.36 0.0 0 1 957.61 182.71
  L 941.68 182.71
  A 0.65 0.65 0.0 0 1 941.03 182.06
  Q 941.06 146.00 941.02 140.51
  Q 940.97 132.96 935.15 130.13
  C 931.40 128.30 925.50 128.83 921.00 129.07
  Q 920.23 129.12 916.88 130.65
  C 912.86 132.49 910.71 136.08 910.67 140.37
  Q 910.49 159.68 910.67 181.95
  A 0.79 0.78 -0.0 0 1 909.88 182.73
  L 894.45 182.74
  A 0.44 0.44 0.0 0 1 894.01 182.30
  L 894.01 116.66
  A 0.66 0.66 0.0 0 1 894.67 116.00
  L 910.10 116.00
  A 0.55 0.54 -87.1 0 1 910.64 116.60
  L 909.94 123.86
  Z"
/>
<path fill="#090909" d="
  M 416.22 124.13
  A 0.28 0.28 0.0 0 0 416.73 124.28
  Q 419.93 119.24 425.25 117.11
  Q 428.76 115.69 434.55 115.82
  Q 442.93 116.00 454.05 115.98
  A 0.56 0.56 0.0 0 1 454.61 116.54
  L 454.61 129.51
  A 0.65 0.65 0.0 0 1 453.96 130.16
  L 430.19 129.90
  A 5.69 5.50 -51.7 0 0 428.71 130.10
  Q 424.48 131.27 423.92 131.46
  Q 416.64 133.92 416.51 142.01
  Q 416.29 157.06 416.39 182.14
  A 0.57 0.57 0.0 0 1 415.82 182.71
  L 400.20 182.71
  A 0.57 0.57 0.0 0 1 399.63 182.14
  L 399.63 116.42
  A 0.41 0.40 -90.0 0 1 400.03 116.01
  L 415.84 116.01
  A 0.38 0.38 0.0 0 1 416.22 116.39
  L 416.22 124.13
  Z"
/>
<path fill="#090909" d="
  M 862.74 174.08
  A 0.31 0.31 0.0 0 0 862.18 173.89
  C 854.56 184.30 841.21 185.49 829.71 182.10
  Q 821.35 179.64 818.52 171.77
  Q 818.08 170.54 817.05 165.98
  A 0.94 0.77 -57.9 0 1 817.02 165.75
  L 817.02 116.56
  A 0.58 0.57 -0.0 0 1 817.60 115.99
  L 833.40 116.00
  A 0.52 0.52 0.0 0 1 833.92 116.57
  Q 833.92 116.58 833.93 157.24
  Q 833.93 162.14 834.96 164.91
  A 3.48 3.45 -73.1 0 0 835.43 165.80
  Q 838.30 169.82 842.24 170.06
  C 848.49 170.44 854.39 170.44 859.07 167.37
  C 863.54 164.42 862.60 156.11 862.61 151.41
  Q 862.66 132.60 862.48 116.57
  A 0.56 0.56 0.0 0 1 863.04 116.00
  L 878.39 116.00
  A 0.61 0.61 0.0 0 1 879.00 116.61
  L 879.00 182.38
  A 0.35 0.35 0.0 0 1 878.65 182.73
  L 863.42 182.73
  A 0.69 0.68 -90.0 0 1 862.74 182.04
  L 862.74 174.08
  Z"
/>
<rect fill="#090909" x="-9.98" y="-9.65" transform="translate(720.03,173.17) rotate(-0.1)" width="19.96" height="19.30" rx="0.54"/>
</svg>
