<svg width="116" height="28" viewBox="0 0 116 28" fill="none" xmlns="http://www.w3.org/2000/svg">
<path d="M25.5827 13.5416C25.347 12.9722 24.8418 12.8357 24.5 12.8031V9.33341C24.5 8.04657 23.4535 7.00007 22.1667 7.00007H15.1667V5.3784C15.5225 5.05874 15.75 4.59907 15.75 4.0834C15.75 3.61928 15.5656 3.17416 15.2374 2.84597C14.9092 2.51778 14.4641 2.3334 14 2.3334C13.5359 2.3334 13.0907 2.51778 12.7626 2.84597C12.4344 3.17416 12.25 3.61928 12.25 4.0834C12.25 4.59907 12.4775 5.05874 12.8333 5.3784V7.00007H5.83332C4.54649 7.00007 3.49999 8.04657 3.49999 9.33341V12.8299L3.40432 12.8369C3.11029 12.8581 2.83519 12.9899 2.63434 13.2057C2.43349 13.4215 2.32177 13.7053 2.32166 14.0001V16.3334C2.32166 16.6428 2.44457 16.9396 2.66336 17.1584C2.88216 17.3772 3.1789 17.5001 3.48832 17.5001H3.49999V23.3334C3.49999 24.6202 4.54649 25.6667 5.83332 25.6667H22.1667C23.4535 25.6667 24.5 24.6202 24.5 23.3334V17.5001C24.8094 17.5001 25.1062 17.3772 25.3249 17.1584C25.5437 16.9396 25.6667 16.6428 25.6667 16.3334V14.0724C25.6801 13.8913 25.6513 13.7096 25.5827 13.5416ZM5.83332 23.3334V9.33341H22.1667L22.1678 13.9954L22.1667 14.0001V16.3334L22.1678 16.3392L22.169 23.3334H5.83332Z" fill="white"/>
<path d="M9.91638 16.3333C10.8829 16.3333 11.6664 15.2886 11.6664 13.9999C11.6664 12.7113 10.8829 11.6666 9.91638 11.6666C8.94988 11.6666 8.16638 12.7113 8.16638 13.9999C8.16638 15.2886 8.94988 16.3333 9.91638 16.3333Z" fill="white"/>
<path d="M18.0836 16.3333C19.0501 16.3333 19.8336 15.2886 19.8336 13.9999C19.8336 12.7113 19.0501 11.6666 18.0836 11.6666C17.1171 11.6666 16.3336 12.7113 16.3336 13.9999C16.3336 15.2886 17.1171 16.3333 18.0836 16.3333Z" fill="white"/>
<path d="M9.66597 18.2778H18.334C18.8738 18.2778 19.2424 18.8186 18.9318 19.26C16.8426 22.2282 11.1573 22.2282 9.0682 19.26C8.75754 18.8186 9.12622 18.2778 9.66597 18.2778Z" fill="white"/>
<path d="M41.7607 11.3145C42.0596 11.3145 42.3701 11.335 42.6924 11.376C43.0205 11.417 43.2666 11.4727 43.4307 11.543L43.2109 13.1338C42.8945 13.0635 42.5928 13.0137 42.3057 12.9844C42.0244 12.9492 41.7285 12.9316 41.418 12.9316C41.0195 12.9316 40.6592 12.9814 40.3369 13.0811C40.0146 13.1748 39.7334 13.3154 39.4932 13.5029C39.2764 13.667 39.0859 13.8691 38.9219 14.1094C38.7637 14.3438 38.6318 14.6074 38.5264 14.9004V21H36.8916V11.4902H38.4385L38.5088 12.7646L38.5176 13.002C38.9043 12.4805 39.3672 12.0703 39.9062 11.7715C40.4512 11.4668 41.0693 11.3145 41.7607 11.3145ZM45.1628 16.1572C45.1628 15.4717 45.2624 14.8359 45.4616 14.25C45.6609 13.6582 45.948 13.1455 46.323 12.7119C46.6921 12.2783 47.1433 11.9385 47.6765 11.6924C48.2097 11.4404 48.8103 11.3145 49.4782 11.3145C50.1521 11.3145 50.7556 11.4404 51.2888 11.6924C51.8279 11.9385 52.2849 12.2783 52.6599 12.7119C53.029 13.1455 53.3132 13.6582 53.5124 14.25C53.7116 14.8359 53.8112 15.4717 53.8112 16.1572V16.3506C53.8112 17.0361 53.7116 17.6719 53.5124 18.2578C53.3132 18.8438 53.029 19.3535 52.6599 19.7871C52.2849 20.2207 51.8308 20.5605 51.2976 20.8066C50.7644 21.0527 50.1638 21.1758 49.4958 21.1758C48.822 21.1758 48.2155 21.0527 47.6765 20.8066C47.1433 20.5605 46.6921 20.2207 46.323 19.7871C45.948 19.3535 45.6609 18.8438 45.4616 18.2578C45.2624 17.6719 45.1628 17.0361 45.1628 16.3506V16.1572ZM46.7888 16.3506C46.7888 16.8193 46.8445 17.2676 46.9558 17.6953C47.0671 18.1172 47.237 18.4893 47.4655 18.8115C47.6882 19.1338 47.9695 19.3887 48.3093 19.5762C48.6491 19.7637 49.0446 19.8574 49.4958 19.8574C49.9411 19.8574 50.3308 19.7637 50.6648 19.5762C51.0046 19.3887 51.2888 19.1338 51.5173 18.8115C51.74 18.4893 51.907 18.1172 52.0183 17.6953C52.1296 17.2676 52.1853 16.8193 52.1853 16.3506V16.1572C52.1853 15.6943 52.1267 15.252 52.0095 14.8301C51.8982 14.4023 51.7312 14.0273 51.5085 13.7051C51.28 13.3828 50.9958 13.1279 50.656 12.9404C50.322 12.7471 49.9294 12.6504 49.4782 12.6504C49.0271 12.6504 48.6345 12.7471 48.3005 12.9404C47.9665 13.1279 47.6882 13.3828 47.4655 13.7051C47.237 14.0273 47.0671 14.4023 46.9558 14.8301C46.8445 15.252 46.7888 15.6943 46.7888 16.1572V16.3506ZM63.77 16.3506C63.77 16.7666 63.7377 17.168 63.6733 17.5547C63.6147 17.9355 63.5268 18.293 63.4096 18.627C63.2514 19.0664 63.0434 19.4619 62.7856 19.8135C62.5336 20.1592 62.2289 20.4463 61.8715 20.6748C61.6137 20.833 61.3295 20.9561 61.019 21.0439C60.7143 21.1318 60.3832 21.1758 60.0258 21.1758C59.6157 21.1758 59.2407 21.126 58.9008 21.0264C58.5668 20.9268 58.2651 20.7832 57.9955 20.5957C57.8666 20.502 57.7436 20.3994 57.6264 20.2881C57.5092 20.1768 57.3979 20.0537 57.2924 19.9189L57.2133 21H55.7192V7.5H57.3452V12.5098C57.4799 12.3398 57.6293 12.1875 57.7934 12.0527C57.9575 11.9121 58.1332 11.792 58.3207 11.6924C58.5551 11.5693 58.8129 11.4756 59.0942 11.4111C59.3754 11.3467 59.6801 11.3145 60.0082 11.3145C60.4184 11.3145 60.7963 11.3701 61.142 11.4814C61.4877 11.5928 61.8012 11.748 62.0825 11.9473C62.3344 12.1348 62.56 12.3633 62.7592 12.6328C62.9584 12.8965 63.1342 13.1924 63.2866 13.5205C63.4448 13.8896 63.5649 14.2998 63.6469 14.751C63.7289 15.1963 63.77 15.668 63.77 16.166V16.3506ZM62.144 16.166C62.144 15.8672 62.1235 15.5771 62.0825 15.2959C62.0473 15.0088 61.9916 14.7393 61.9155 14.4873C61.81 14.1768 61.6723 13.8926 61.5024 13.6348C61.3325 13.377 61.1245 13.1748 60.8784 13.0283C60.7084 12.9229 60.518 12.8408 60.3071 12.7822C60.0961 12.7236 59.8618 12.6943 59.6039 12.6943C59.3227 12.6943 59.0649 12.7324 58.8305 12.8086C58.5961 12.8789 58.3881 12.9785 58.2065 13.1074C58.019 13.2422 57.852 13.4004 57.7055 13.582C57.5649 13.7578 57.4448 13.9512 57.3452 14.1621V18.3193C57.4506 18.5303 57.5737 18.7266 57.7143 18.9082C57.8608 19.084 58.0278 19.2393 58.2153 19.374C58.4028 19.5088 58.6137 19.6143 58.8481 19.6904C59.0825 19.7607 59.3403 19.7959 59.6215 19.7959C59.8911 19.7959 60.1371 19.7637 60.3598 19.6992C60.5825 19.6289 60.7817 19.5293 60.9575 19.4004C61.1918 19.2363 61.3881 19.0283 61.5463 18.7764C61.7045 18.5244 61.8305 18.2432 61.9243 17.9326C62.0004 17.6982 62.0561 17.4463 62.0912 17.1768C62.1264 16.9072 62.144 16.6318 62.144 16.3506V16.166ZM65.3439 16.1572C65.3439 15.4717 65.4435 14.8359 65.6427 14.25C65.842 13.6582 66.1291 13.1455 66.5041 12.7119C66.8732 12.2783 67.3244 11.9385 67.8576 11.6924C68.3908 11.4404 68.9914 11.3145 69.6593 11.3145C70.3332 11.3145 70.9367 11.4404 71.4699 11.6924C72.0089 11.9385 72.466 12.2783 72.841 12.7119C73.2101 13.1455 73.4943 13.6582 73.6935 14.25C73.8927 14.8359 73.9923 15.4717 73.9923 16.1572V16.3506C73.9923 17.0361 73.8927 17.6719 73.6935 18.2578C73.4943 18.8438 73.2101 19.3535 72.841 19.7871C72.466 20.2207 72.0119 20.5605 71.4787 20.8066C70.9455 21.0527 70.3449 21.1758 69.6769 21.1758C69.0031 21.1758 68.3966 21.0527 67.8576 20.8066C67.3244 20.5605 66.8732 20.2207 66.5041 19.7871C66.1291 19.3535 65.842 18.8438 65.6427 18.2578C65.4435 17.6719 65.3439 17.0361 65.3439 16.3506V16.1572ZM66.9699 16.3506C66.9699 16.8193 67.0255 17.2676 67.1369 17.6953C67.2482 18.1172 67.4181 18.4893 67.6466 18.8115C67.8693 19.1338 68.1505 19.3887 68.4904 19.5762C68.8302 19.7637 69.2257 19.8574 69.6769 19.8574C70.1222 19.8574 70.5119 19.7637 70.8459 19.5762C71.1857 19.3887 71.4699 19.1338 71.6984 18.8115C71.9211 18.4893 72.088 18.1172 72.1994 17.6953C72.3107 17.2676 72.3664 16.8193 72.3664 16.3506V16.1572C72.3664 15.6943 72.3078 15.252 72.1906 14.8301C72.0793 14.4023 71.9123 14.0273 71.6896 13.7051C71.4611 13.3828 71.1769 13.1279 70.8371 12.9404C70.5031 12.7471 70.1105 12.6504 69.6593 12.6504C69.2082 12.6504 68.8156 12.7471 68.4816 12.9404C68.1476 13.1279 67.8693 13.3828 67.6466 13.7051C67.4181 14.0273 67.2482 14.4023 67.1369 14.8301C67.0255 15.252 66.9699 15.6943 66.9699 16.1572V16.3506ZM78.7216 19.9453C78.7216 19.5996 78.827 19.3037 79.038 19.0576C79.2489 18.8115 79.5682 18.6885 79.996 18.6885C80.4179 18.6885 80.7372 18.8115 80.954 19.0576C81.1766 19.2979 81.288 19.5938 81.288 19.9453C81.288 20.291 81.1766 20.5811 80.954 20.8154C80.7313 21.0498 80.412 21.167 79.996 21.167C79.5741 21.167 79.2548 21.0498 79.038 20.8154C78.827 20.5752 78.7216 20.2852 78.7216 19.9453ZM88.4078 21V12.7471H85.7887V11.4902H88.4078V10.8223C88.4078 10.2129 88.4957 9.67969 88.6715 9.22266C88.8531 8.75977 89.108 8.37305 89.4361 8.0625C89.7584 7.75195 90.148 7.51758 90.6051 7.35938C91.0621 7.20117 91.5719 7.12207 92.1344 7.12207C92.3688 7.12207 92.6002 7.13672 92.8287 7.16602C93.0572 7.18945 93.2828 7.22168 93.5055 7.2627C93.652 7.29199 93.7984 7.32422 93.9449 7.35938C94.0914 7.38867 94.2408 7.42383 94.3932 7.46484L94.1998 8.80957C93.9596 8.72754 93.6783 8.65723 93.3561 8.59863C93.0396 8.53418 92.6998 8.50195 92.3365 8.50195C91.9674 8.50195 91.6393 8.54883 91.3521 8.64258C91.0709 8.73047 90.8365 8.86523 90.649 9.04688C90.4498 9.23438 90.2975 9.47754 90.192 9.77637C90.0924 10.0752 90.0426 10.4238 90.0426 10.8223V11.4902H93.7076V12.7471H90.0426V21H88.4078ZM102.339 21L102.243 19.6904C101.926 20.1592 101.531 20.5254 101.056 20.7891C100.581 21.0469 100.034 21.1758 99.4124 21.1758C98.9144 21.1758 98.4632 21.0996 98.0589 20.9473C97.6546 20.7891 97.3089 20.5459 97.0218 20.2178C96.7347 19.8896 96.512 19.4736 96.3538 18.9697C96.2015 18.46 96.1253 17.8506 96.1253 17.1416V11.4902H97.7513V17.1592C97.7513 17.6748 97.7923 18.1025 97.8743 18.4424C97.9564 18.7822 98.0794 19.0518 98.2435 19.251C98.4075 19.4561 98.6068 19.5996 98.8411 19.6816C99.0814 19.7637 99.3568 19.8047 99.6673 19.8047C100.031 19.8047 100.356 19.7637 100.643 19.6816C100.93 19.5938 101.179 19.4736 101.39 19.3213C101.566 19.1982 101.718 19.0518 101.847 18.8818C101.982 18.7061 102.093 18.5156 102.181 18.3105V11.4902H103.816V21H102.339ZM106.163 21V11.4902H107.622L107.736 12.8965C107.877 12.6973 108.029 12.5156 108.193 12.3516C108.363 12.1816 108.542 12.0352 108.73 11.9121C109.011 11.7246 109.315 11.5811 109.644 11.4814C109.978 11.376 110.329 11.3203 110.698 11.3145C111.196 11.3145 111.647 11.3848 112.052 11.5254C112.462 11.666 112.811 11.8857 113.098 12.1846C113.385 12.4834 113.605 12.8643 113.757 13.3271C113.915 13.7842 113.994 14.3291 113.994 14.9619V21H112.368V14.9971C112.368 14.5752 112.321 14.2178 112.228 13.9248C112.134 13.6318 111.996 13.3945 111.814 13.2129C111.627 13.0312 111.398 12.8994 111.129 12.8174C110.865 12.7354 110.561 12.6943 110.215 12.6943C109.916 12.6943 109.638 12.7383 109.38 12.8262C109.122 12.9082 108.885 13.0225 108.668 13.1689C108.492 13.2979 108.328 13.4473 108.176 13.6172C108.029 13.7871 107.9 13.9746 107.789 14.1797V21H106.163Z" fill="white"/>
</svg>
